<svg xmlns="http://www.w3.org/2000/svg" width="117" height="16" viewBox="0 0 117 16" fill="none"><path d="M7.58804 0.556577L5.51309 4.69357L0.870668 5.35911C0.0381459 5.47784 -0.295498 6.48709 0.308239 7.06515L3.66692 10.2835L2.87253 14.8298C2.72954 15.6516 3.60973 16.2671 4.34692 15.8828L8.5 13.7362L12.6531 15.8828C13.3903 16.264 14.2705 15.6516 14.1275 14.8298L13.3331 10.2835L16.6918 7.06515C17.2955 6.48709 16.9619 5.47784 16.1293 5.35911L11.4869 4.69357L9.41196 0.556577C9.04019 -0.180831 7.96299 -0.190205 7.58804 0.556577Z" fill="#FBD205"></path><path d="M32.588 0.556577L30.5131 4.69357L25.8707 5.35911C25.0381 5.47784 24.7045 6.48709 25.3082 7.06515L28.6669 10.2835L27.8725 14.8298C27.7295 15.6516 28.6097 16.2671 29.3469 15.8828L33.5 13.7362L37.6531 15.8828C38.3903 16.264 39.2705 15.6516 39.1275 14.8298L38.3331 10.2835L41.6918 7.06515C42.2955 6.48709 41.9619 5.47784 41.1293 5.35911L36.4869 4.69357L34.412 0.556577C34.0402 -0.180831 32.963 -0.190205 32.588 0.556577Z" fill="#FBD205"></path><path d="M57.588 0.556577L55.5131 4.69357L50.8707 5.35911C50.0381 5.47784 49.7045 6.48709 50.3082 7.06515L53.6669 10.2835L52.8725 14.8298C52.7295 15.6516 53.6097 16.2671 54.3469 15.8828L58.5 13.7362L62.6531 15.8828C63.3903 16.264 64.2705 15.6516 64.1275 14.8298L63.3331 10.2835L66.6918 7.06515C67.2955 6.48709 66.9619 5.47784 66.1293 5.35911L61.4869 4.69357L59.412 0.556577C59.0402 -0.180831 57.963 -0.190205 57.588 0.556577Z" fill="#FBD205"></path><path d="M82.588 0.556577L80.5131 4.69357L75.8707 5.35911C75.0381 5.47784 74.7045 6.48709 75.3082 7.06515L78.6669 10.2835L77.8725 14.8298C77.7295 15.6516 78.6097 16.2671 79.3469 15.8828L83.5 13.7362L87.6531 15.8828C88.3903 16.264 89.2705 15.6516 89.1275 14.8298L88.3331 10.2835L91.6918 7.06515C92.2955 6.48709 91.9619 5.47784 91.1293 5.35911L86.4869 4.69357L84.412 0.556577C84.0402 -0.180831 82.963 -0.190205 82.588 0.556577Z" fill="#FBD205"></path><path d="M107.588 0.556577L105.513 4.69357L100.871 5.35911C100.038 5.47784 99.7045 6.48709 100.308 7.06515L103.667 10.2835L102.873 14.8298C102.73 15.6516 103.61 16.2671 104.347 15.8828L108.5 13.7362L112.653 15.8828C113.39 16.264 114.27 15.6516 114.127 14.8298L113.333 10.2835L116.692 7.06515C117.295 6.48709 116.962 5.47784 116.129 5.35911L111.487 4.69357L109.412 0.556577C109.04 -0.180831 107.963 -0.190205 107.588 0.556577Z" fill="#FBD205"></path></svg>